<svg width="67" height="67" viewBox="0 0 67 67" fill="none" xmlns="http://www.w3.org/2000/svg">
<g clip-path="url(#clip0_114_1788)">
<path d="M2.40847 43.1439C2.19668 42.9889 1.91773 42.9062 1.57163 42.9062H0.486835V44.7917H1.55097C1.7266 44.7917 1.88674 44.7711 2.03138 44.7246C2.17602 44.6781 2.29999 44.6161 2.40331 44.5334C2.50662 44.4508 2.58927 44.3526 2.64093 44.2338C2.69775 44.1202 2.72358 43.9859 2.72358 43.8464C2.72358 43.5365 2.62027 43.304 2.40847 43.1439ZM3.07485 44.4405C2.98703 44.6161 2.86305 44.7607 2.70808 44.8795C2.55311 44.9984 2.37748 45.0862 2.17085 45.1482C1.96422 45.2101 1.75243 45.236 1.51997 45.236H0.481669V46.7495H-0.00390625V42.4672H1.59746C1.84025 42.4672 2.05721 42.4982 2.2535 42.5601C2.4498 42.6221 2.62027 42.7151 2.75974 42.8288C2.89921 42.9476 3.00769 43.087 3.08518 43.2575C3.16267 43.428 3.19882 43.6191 3.19882 43.8309C3.19882 44.0634 3.15233 44.27 3.06452 44.4456L3.07485 44.4405Z" fill="white"/>
<path d="M8.83441 43.9188C8.75176 43.7018 8.63295 43.5159 8.48314 43.3557C8.33333 43.1956 8.15254 43.0716 7.94591 42.9735C7.73928 42.8805 7.51715 42.834 7.2692 42.834C7.02125 42.834 6.79912 42.8805 6.5925 42.9735C6.38587 43.0664 6.21023 43.1904 6.06043 43.3506C5.91579 43.5107 5.79698 43.6967 5.71433 43.9084C5.63168 44.1254 5.59035 44.3527 5.59035 44.5955C5.59035 44.8383 5.63168 45.0707 5.71433 45.2877C5.79698 45.5046 5.91579 45.6906 6.06559 45.8507C6.2154 46.0109 6.3962 46.1349 6.60283 46.2278C6.80945 46.3208 7.03675 46.3673 7.27953 46.3673C7.52232 46.3673 7.74961 46.3208 7.95624 46.2278C8.16287 46.1349 8.3385 46.0109 8.48314 45.8507C8.62778 45.6906 8.74659 45.5046 8.82924 45.2929C8.91189 45.0811 8.95322 44.8486 8.95322 44.6058C8.95322 44.363 8.91189 44.1306 8.82924 43.9136L8.83441 43.9188ZM9.30449 45.4478C9.19601 45.7164 9.05137 45.9489 8.86024 46.1555C8.6691 46.357 8.43665 46.5223 8.16803 46.6411C7.89942 46.7599 7.59981 46.8219 7.27437 46.8219C6.94893 46.8219 6.64932 46.7651 6.38587 46.6463C6.11725 46.5275 5.88996 46.3673 5.69883 46.1659C5.5077 45.9644 5.35789 45.7319 5.25458 45.4633C5.15127 45.1947 5.09961 44.9158 5.09961 44.6161C5.09961 44.3165 5.15127 44.0376 5.25975 43.769C5.36823 43.5004 5.51287 43.2679 5.704 43.0613C5.89513 42.8546 6.12758 42.6945 6.3962 42.5757C6.66482 42.4569 6.96443 42.3949 7.28986 42.3949C7.6153 42.3949 7.91491 42.4517 8.17836 42.5705C8.44698 42.6893 8.67427 42.8495 8.8654 43.0509C9.05653 43.2524 9.20634 43.49 9.30965 43.7535C9.41296 44.0221 9.46462 44.301 9.46462 44.6006C9.46462 44.9003 9.41297 45.1792 9.30449 45.4478Z" fill="white"/>
<path d="M14.0507 42.4517H14.4485L15.6211 46.0315L16.8454 42.462H17.3568L15.8277 46.7805H15.4145L14.2419 43.304L13.0589 46.7805H12.656L11.127 42.462H11.6539L12.8781 46.0315L14.0507 42.4517Z" fill="white"/>
<path d="M22.5252 42.9063H19.9114V44.3682H22.2463V44.8073H19.9114V46.3053H22.5562V46.7496H19.4258V42.462H22.5252V42.9063Z" fill="white"/>
<path d="M24.7188 42.462H25.2043V46.3001H27.6115V46.7496H24.7188V42.462Z" fill="white"/>
<path d="M29.6992 42.462H30.1848V46.3001H32.5972V46.7496H29.6992V42.462Z" fill="white"/>
<path d="M40.7897 42.9115H38.1965V44.4405H40.5159V44.8796H38.1965V46.7496H37.7109V42.462H40.7897V42.9115Z" fill="white"/>
<path d="M42.916 42.462H43.4016V46.3001H45.814V46.7496H42.916V42.462Z" fill="white"/>
<path d="M51.2804 44.9158C51.2804 45.2309 51.2391 45.5047 51.1513 45.7423C51.0686 45.9799 50.9447 46.1762 50.7897 46.3363C50.6347 46.4965 50.4436 46.6153 50.2266 46.6928C50.0097 46.7703 49.7669 46.8116 49.4931 46.8116C49.2193 46.8116 48.9869 46.7703 48.7699 46.6928C48.5529 46.6153 48.3618 46.4965 48.2068 46.3363C48.0519 46.1814 47.9279 45.9851 47.8401 45.7526C47.7523 45.5202 47.7109 45.2516 47.7109 44.9519V42.4621H48.1965V44.9209C48.1965 45.3859 48.3102 45.7423 48.5426 45.9902C48.7751 46.2382 49.0953 46.3622 49.5086 46.3622C49.9219 46.3622 50.2163 46.2434 50.4539 46.0057C50.6864 45.7681 50.8 45.4169 50.8 44.9468V42.4569H51.2856V44.9106L51.2804 44.9158Z" fill="white"/>
<path d="M55.2322 46.7496H54.7466V42.9115H53.3105V42.462H56.6682V42.9115H55.2322V46.7496Z" fill="white"/>
<path d="M61.8716 42.9063H59.2578V44.3682H61.5978V44.8073H59.2578V46.3053H61.9026V46.7496H58.7773V42.462H61.8716V42.9063Z" fill="white"/>
<path d="M64.4884 43.8051C64.5194 43.8877 64.5814 43.9601 64.664 44.0272C64.7467 44.0944 64.8655 44.1564 65.0205 44.2132C65.1703 44.27 65.3666 44.3217 65.6042 44.3682C66.0794 44.4766 66.4359 44.6213 66.658 44.8124C66.8853 44.9984 66.9989 45.2618 66.9989 45.5924C66.9989 45.7784 66.9628 45.9437 66.8904 46.0935C66.8181 46.2433 66.72 46.3724 66.5908 46.4809C66.4617 46.5894 66.3119 46.6669 66.1311 46.7289C65.9503 46.7857 65.754 46.8167 65.5422 46.8167C65.2013 46.8167 64.8861 46.7599 64.602 46.6514C64.3179 46.5429 64.0493 46.3725 63.791 46.14L64.0906 45.7836C64.3128 45.985 64.54 46.14 64.7725 46.2381C64.9998 46.3363 65.2632 46.3879 65.5629 46.3879C65.8625 46.3879 66.0846 46.3208 66.2551 46.1865C66.4307 46.0522 66.5133 45.8714 66.5133 45.6544C66.5133 45.5511 66.4978 45.4633 66.4617 45.3806C66.4307 45.3032 66.3739 45.2308 66.2912 45.1637C66.2086 45.0965 66.0949 45.0397 65.9503 44.988C65.8056 44.9364 65.6197 44.8847 65.3975 44.8331C65.1548 44.7814 64.9378 44.7194 64.757 44.6471C64.5762 44.58 64.4264 44.4921 64.3076 44.394C64.1888 44.2958 64.101 44.1822 64.0441 44.0531C63.9873 43.9239 63.9563 43.7689 63.9563 43.5881C63.9563 43.4073 63.9925 43.2575 64.0596 43.1181C64.1268 42.9786 64.2249 42.8494 64.3541 42.7461C64.4832 42.6428 64.6279 42.5602 64.7983 42.5033C64.9688 42.4414 65.1599 42.4155 65.3614 42.4155C65.6765 42.4155 65.9503 42.4569 66.1827 42.5447C66.4152 42.6325 66.6425 42.7616 66.8646 42.9321L66.5857 43.304C66.3842 43.1439 66.1827 43.0251 65.9813 42.9476C65.7798 42.8753 65.568 42.8391 65.3459 42.8391C65.2064 42.8391 65.0824 42.8598 64.9688 42.8959C64.8551 42.9321 64.7622 42.9838 64.6795 43.0406C64.602 43.1026 64.54 43.1749 64.4987 43.2627C64.4574 43.3505 64.4367 43.4383 64.4367 43.5365C64.4367 43.6346 64.4522 43.7328 64.4832 43.8103L64.4884 43.8051Z" fill="white"/>
<path d="M22.3787 50.97H22.4872C22.6629 50.97 22.7868 50.9442 22.8591 50.8925C22.9315 50.8409 22.9728 50.7531 22.9728 50.6291C22.9728 50.5206 22.9366 50.4431 22.8695 50.3863C22.8023 50.3346 22.699 50.3088 22.5595 50.3088H22.3787V50.97ZM22.3787 52.0135H22.6474C22.8023 52.0135 22.9211 51.9825 22.9935 51.9257C23.0658 51.8688 23.1019 51.7759 23.1019 51.6519C23.1019 51.5176 23.0658 51.4194 22.9883 51.3471C22.9108 51.28 22.7972 51.2438 22.6474 51.2438H22.3787V52.0083V52.0135ZM22.5492 49.9885C22.7972 49.9885 22.9883 50.0453 23.1174 50.1538C23.2466 50.2623 23.3137 50.4224 23.3137 50.6291C23.3137 50.7272 23.2931 50.8099 23.2517 50.8874C23.2104 50.9597 23.1484 51.0217 23.0658 51.0733C23.1794 51.1095 23.2724 51.1715 23.3396 51.2696C23.4067 51.3678 23.4377 51.4814 23.4377 51.6209C23.4377 51.7294 23.417 51.8327 23.3757 51.9308C23.3344 52.029 23.2776 52.1065 23.2053 52.1684C23.1329 52.2304 23.0554 52.2718 22.9625 52.2976C22.8746 52.3234 22.7455 52.3338 22.5854 52.3338H22.043V49.9885H22.544H22.5492Z" fill="white"/>
<path d="M26.18 51.1456C26.18 51.2696 26.2006 51.3832 26.2419 51.4917C26.2833 51.6002 26.3401 51.6932 26.4176 51.7758C26.5002 51.8585 26.5881 51.9256 26.6965 51.9721C26.7998 52.0186 26.9083 52.0393 27.0168 52.0393C27.2596 52.0393 27.4611 51.9515 27.6264 51.781C27.7917 51.6105 27.8691 51.3936 27.8691 51.1405C27.8691 51.032 27.8485 50.9287 27.8123 50.8305C27.771 50.7324 27.7142 50.6394 27.6419 50.5567C27.554 50.4586 27.4559 50.3914 27.3577 50.3449C27.2544 50.2984 27.1459 50.2778 27.022 50.2778C26.9135 50.2778 26.805 50.2984 26.7069 50.3398C26.6087 50.3811 26.5209 50.4431 26.4434 50.5206C26.3608 50.6032 26.2988 50.7014 26.2574 50.8099C26.211 50.9183 26.1903 51.032 26.1903 51.1456H26.18ZM25.8235 51.1456C25.8235 50.9803 25.8545 50.8254 25.9165 50.6807C25.9785 50.5361 26.0715 50.4018 26.1903 50.283C26.3039 50.1693 26.4279 50.0867 26.5674 50.0298C26.7069 49.973 26.8567 49.942 27.0168 49.942C27.1769 49.942 27.3319 49.973 27.4714 50.0298C27.6109 50.0867 27.74 50.1745 27.8536 50.2881C27.9725 50.4069 28.0603 50.5361 28.1223 50.6807C28.1842 50.8254 28.2101 50.9803 28.2101 51.1508C28.2101 51.3213 28.1842 51.4711 28.1326 51.6105C28.0809 51.75 28.0035 51.874 27.9001 51.9876C27.7813 52.1168 27.6419 52.2149 27.492 52.2821C27.3422 52.3492 27.1821 52.3802 27.0065 52.3802C26.8308 52.3802 26.6707 52.3492 26.5209 52.2769C26.3711 52.2098 26.2368 52.1064 26.1231 51.9773C26.025 51.8688 25.9475 51.7397 25.8958 51.6002C25.8442 51.4607 25.8184 51.3058 25.8184 51.1456H25.8235Z" fill="white"/>
<path d="M30.5957 51.6519H30.9005C30.9056 51.7758 30.9418 51.8688 31.009 51.9411C31.0761 52.0135 31.1639 52.0496 31.2672 52.0496C31.3861 52.0496 31.479 52.0135 31.5462 51.9411C31.6185 51.8688 31.6495 51.7707 31.6495 51.6519C31.6495 51.5485 31.6237 51.4659 31.572 51.4039C31.5204 51.3471 31.4119 51.2903 31.2466 51.2438C31.2363 51.2438 31.2259 51.2386 31.2053 51.2334C31.009 51.1818 30.8643 51.094 30.7765 50.9752C30.7352 50.9235 30.7093 50.8667 30.6887 50.8047C30.668 50.7427 30.6577 50.6807 30.6577 50.6136C30.6577 50.4121 30.7197 50.252 30.8385 50.128C30.9573 50.004 31.1123 49.942 31.3086 49.942C31.4894 49.942 31.634 49.9988 31.7425 50.1073C31.851 50.221 31.913 50.3708 31.9233 50.5619H31.6082C31.603 50.4689 31.572 50.3914 31.5152 50.3346C31.4584 50.2778 31.3861 50.2468 31.2982 50.2468C31.2053 50.2468 31.1278 50.2778 31.071 50.3449C31.0141 50.4069 30.9831 50.4896 30.9831 50.5929C30.9831 50.6291 30.9883 50.66 30.9986 50.691C31.009 50.722 31.0245 50.753 31.0503 50.7789C31.0968 50.8357 31.1949 50.8822 31.3447 50.9183C31.4171 50.939 31.4687 50.9545 31.5049 50.9648C31.6598 51.0216 31.7786 51.1043 31.8561 51.2179C31.9336 51.3264 31.9749 51.4607 31.9749 51.6157C31.9749 51.843 31.913 52.0238 31.7838 52.1633C31.6547 52.3027 31.4842 52.3699 31.2724 52.3699C31.0709 52.3699 30.9108 52.3027 30.7868 52.1736C30.6629 52.0393 30.5957 51.8688 30.5957 51.6519Z" fill="white"/>
<path d="M35.0815 52.3286H34.7457V50.3036H34.3066V49.9885H35.5206V50.3036H35.0815V52.3286Z" fill="white"/>
<path d="M38.191 51.1456C38.191 51.2696 38.2116 51.3832 38.253 51.4917C38.2943 51.6002 38.3511 51.6932 38.4286 51.7758C38.5113 51.8585 38.5991 51.9256 38.7076 51.9721C38.8109 52.0186 38.9193 52.0393 39.0278 52.0393C39.2706 52.0393 39.4721 51.9515 39.6374 51.781C39.7975 51.6105 39.8802 51.3936 39.8802 51.1405C39.8802 51.032 39.8595 50.9287 39.8233 50.8305C39.782 50.7324 39.7252 50.6394 39.6529 50.5567C39.5651 50.4586 39.4669 50.3914 39.3688 50.3449C39.2654 50.2984 39.157 50.2778 39.033 50.2778C38.9245 50.2778 38.816 50.2984 38.7179 50.3398C38.6197 50.3811 38.5319 50.4431 38.4544 50.5206C38.3718 50.6032 38.3098 50.7014 38.2685 50.8099C38.222 50.9183 38.2013 51.032 38.2013 51.1456H38.191ZM37.8345 51.1456C37.8345 50.9803 37.8655 50.8254 37.9275 50.6807C37.9895 50.5361 38.0825 50.4018 38.2013 50.283C38.315 50.1693 38.4389 50.0867 38.5784 50.0298C38.7179 49.973 38.8677 49.942 39.0278 49.942C39.188 49.942 39.3429 49.973 39.4824 50.0298C39.6219 50.0867 39.751 50.1745 39.8647 50.2881C39.9835 50.4069 40.0713 50.5361 40.1333 50.6807C40.1953 50.8254 40.2211 50.9803 40.2211 51.1508C40.2211 51.3213 40.1953 51.4711 40.1436 51.6105C40.092 51.75 40.0145 51.874 39.9112 51.9876C39.7872 52.1168 39.6529 52.2149 39.5031 52.2821C39.3533 52.3492 39.1931 52.3802 39.0175 52.3802C38.8419 52.3802 38.6817 52.3492 38.5319 52.2769C38.3821 52.2098 38.2478 52.1064 38.129 51.9773C38.0308 51.8688 37.9534 51.7397 37.9017 51.6002C37.85 51.4607 37.8242 51.3058 37.8242 51.1456H37.8345Z" fill="white"/>
<path d="M43.0734 52.3286H42.7324V49.9885H43.0837L44.2356 51.7604L44.2201 49.9885H44.5559V52.3286H44.2305L43.0527 50.5051L43.0734 52.3286Z" fill="white"/>
<path d="M43.2387 24.0618L47.7742 19.6451L38.2745 19.6657L43.2387 24.0618ZM45.0622 27.3523L35.547 18.6119L50.3519 18.5809L44.1324 24.7333L46.0747 26.5568L58.555 15.4867H9.39827L33.894 37.3737L45.0622 27.3471V27.3523ZM7.01172 14.624H60.9571L33.894 38.6238L7.01172 14.624Z" fill="white"/>
<path d="M25.0972 25.3532L32.9439 18.5448H28.0985L29.6327 20.017L25.1282 23.881L20.7425 19.986L22.2147 18.5448H17.3125L25.0972 25.3532Z" fill="white"/>
<path d="M33.2468 31.3868L33.1848 29.8215H34.8068V31.3868L39.3113 27.6468L34.0681 23.0803L29.1968 27.7088L33.2416 31.3868H33.2468ZM27.332 27.6468L34.0113 21.2103L41.1244 27.6468L34.843 32.9468V35.1835H33.1899V32.9778L27.3372 27.6416L27.332 27.6468Z" fill="white"/>
</g>
<defs>
<clipPath id="clip0_114_1788">
<rect width="67" height="67" fill="white"/>
</clipPath>
</defs>
</svg>
