<?xml version="1.0" encoding="UTF-8"?><svg id="Calque_1" xmlns="http://www.w3.org/2000/svg" viewBox="0 0 160 160"><defs><style>.cls-1{fill:#fff;}</style></defs><g><path class="cls-1" d="m19.81,98.67c-.41-.3-.95-.46-1.62-.46h-2.1v3.65h2.06c.34,0,.65-.04.93-.13.28-.09.52-.21.72-.37.2-.16.36-.35.46-.58.11-.22.16-.48.16-.75,0-.6-.2-1.05-.61-1.36h0Zm1.29,2.51c-.17.34-.41.62-.71.85-.3.23-.64.4-1.04.52-.4.12-.81.17-1.26.17h-2.01v2.93h-.94v-8.29h3.1c.47,0,.89.06,1.27.18.38.12.71.3.98.52.27.23.48.5.63.83.15.33.22.7.22,1.11,0,.45-.09.85-.26,1.19h0Z"/><path class="cls-1" d="m32.25,100.17c-.16-.42-.39-.78-.68-1.09-.29-.31-.64-.55-1.04-.74-.4-.18-.83-.27-1.31-.27s-.91.09-1.31.27c-.4.18-.74.42-1.03.73-.28.31-.51.67-.67,1.08-.16.42-.24.86-.24,1.33s.08.92.24,1.34c.16.42.39.78.68,1.09.29.31.64.55,1.04.73.4.18.84.27,1.31.27s.91-.09,1.31-.27c.4-.18.74-.42,1.02-.73.28-.31.51-.67.67-1.08.16-.41.24-.86.24-1.33s-.08-.92-.24-1.34h0Zm.91,2.96c-.21.52-.49.97-.86,1.37-.37.39-.82.71-1.34.94-.52.23-1.1.35-1.73.35s-1.21-.11-1.72-.34c-.52-.23-.96-.54-1.33-.93-.37-.39-.66-.84-.86-1.36-.2-.52-.3-1.06-.3-1.64s.1-1.12.31-1.64c.21-.52.49-.97.86-1.37.37-.4.82-.71,1.34-.94.52-.23,1.1-.35,1.73-.35s1.21.11,1.72.34c.52.23.96.54,1.33.93.37.39.66.85.86,1.36.2.52.3,1.06.3,1.64s-.1,1.12-.31,1.64h0Z"/><polygon class="cls-1" points="42.35 97.33 43.12 97.33 45.39 104.26 47.76 97.35 48.75 97.35 45.79 105.71 44.99 105.71 42.72 98.98 40.43 105.71 39.65 105.71 36.69 97.35 37.71 97.35 40.08 104.26 42.35 97.33 42.35 97.33"/><polygon class="cls-1" points="58.75 98.21 53.69 98.21 53.69 101.04 58.21 101.04 58.21 101.89 53.69 101.89 53.69 104.79 58.81 104.79 58.81 105.65 52.75 105.65 52.75 97.35 58.75 97.35 58.75 98.21 58.75 98.21"/><polygon class="cls-1" points="63 97.35 63.94 97.35 63.94 104.78 68.6 104.78 68.6 105.65 63 105.65 63 97.35 63 97.35"/><polygon class="cls-1" points="72.64 97.35 73.58 97.35 73.58 104.78 78.25 104.78 78.25 105.65 72.64 105.65 72.64 97.35 72.64 97.35"/><polygon class="cls-1" points="94.11 98.22 89.09 98.22 89.09 101.18 93.58 101.18 93.58 102.03 89.09 102.03 89.09 105.65 88.15 105.65 88.15 97.35 94.11 97.35 94.11 98.22 94.11 98.22"/><polygon class="cls-1" points="98.23 97.35 99.17 97.35 99.17 104.78 103.84 104.78 103.84 105.65 98.23 105.65 98.23 97.35 98.23 97.35"/><path class="cls-1" d="m114.42,102.1c0,.61-.08,1.14-.25,1.6-.16.46-.4.84-.7,1.15-.3.31-.67.54-1.09.69-.42.15-.89.23-1.42.23s-.98-.08-1.4-.23c-.42-.15-.79-.38-1.09-.69-.3-.3-.54-.68-.71-1.13-.17-.45-.25-.97-.25-1.55v-4.82h.94v4.76c0,.9.22,1.59.67,2.07.45.48,1.07.72,1.87.72s1.37-.23,1.83-.69c.45-.46.67-1.14.67-2.05v-4.82h.94v4.75h0Z"/><polygon class="cls-1" points="122.07 105.65 121.13 105.65 121.13 98.22 118.35 98.22 118.35 97.35 124.85 97.35 124.85 98.22 122.07 98.22 122.07 105.65 122.07 105.65"/><polygon class="cls-1" points="134.92 98.21 129.86 98.21 129.86 101.04 134.39 101.04 134.39 101.89 129.86 101.89 129.86 104.79 134.98 104.79 134.98 105.65 128.93 105.65 128.93 97.35 134.92 97.35 134.92 98.21 134.92 98.21"/><path class="cls-1" d="m139.99,99.95c.06.16.18.3.34.43.16.13.39.25.69.36.29.11.67.21,1.13.3.92.21,1.61.49,2.04.86.44.36.66.87.66,1.51,0,.36-.07.68-.21.97-.14.29-.33.54-.58.75-.25.21-.54.36-.89.48-.35.11-.73.17-1.14.17-.66,0-1.27-.11-1.82-.32-.55-.21-1.07-.54-1.57-.99l.58-.69c.43.39.87.69,1.32.88.44.19.95.29,1.53.29s1.01-.13,1.34-.39c.34-.26.5-.61.5-1.03,0-.2-.03-.37-.1-.53-.06-.15-.17-.29-.33-.42-.16-.13-.38-.24-.66-.34-.28-.1-.64-.2-1.07-.3-.47-.1-.89-.22-1.24-.36-.35-.13-.64-.3-.87-.49-.23-.19-.4-.41-.51-.66-.11-.25-.17-.55-.17-.9s.07-.64.2-.91.32-.52.57-.72c.25-.2.53-.36.86-.47.33-.12.7-.17,1.09-.17.61,0,1.14.08,1.59.25.45.17.89.42,1.32.75l-.54.72c-.39-.31-.78-.54-1.17-.69-.39-.14-.8-.21-1.23-.21-.27,0-.51.04-.73.11-.22.07-.4.17-.56.28-.15.12-.27.26-.35.43-.08.17-.12.34-.12.53s.03.38.09.53h0Z"/></g><g><path class="cls-1" d="m58.47,113.82h.21c.34,0,.58-.05.72-.15.14-.1.22-.27.22-.51,0-.21-.07-.36-.2-.47-.13-.1-.33-.15-.6-.15h-.35v1.28h0Zm0,2.02h.52c.3,0,.53-.06.67-.17.14-.11.21-.29.21-.53,0-.26-.07-.45-.22-.59-.15-.13-.37-.2-.66-.2h-.52v1.48h0Zm.33-3.92c.48,0,.85.11,1.1.32.25.21.38.52.38.92,0,.19-.04.35-.12.5-.08.14-.2.26-.36.36.22.07.4.19.53.38.13.19.19.41.19.68,0,.21-.04.41-.12.6-.08.19-.19.34-.33.46-.14.12-.29.2-.47.25-.17.05-.42.07-.73.07h-1.05v-4.54h.97Z"/><path class="cls-1" d="m65.83,114.16c0,.24.04.46.12.67.08.21.19.39.34.55.16.16.33.29.54.38.2.09.41.13.62.13.47,0,.86-.17,1.18-.5.32-.33.47-.75.47-1.24,0-.21-.04-.41-.11-.6-.08-.19-.19-.37-.33-.53-.17-.19-.36-.32-.55-.41-.2-.09-.41-.13-.65-.13-.21,0-.42.04-.61.12-.19.08-.36.2-.51.35-.16.16-.28.35-.36.56-.09.21-.13.43-.13.65h0Zm-.69,0c0-.32.06-.62.18-.9.12-.28.3-.54.53-.77.22-.22.46-.38.73-.49.27-.11.56-.17.87-.17s.61.06.88.17c.27.11.52.28.74.5.23.23.4.48.52.76.12.28.17.58.17.91s-.05.62-.15.89c-.1.27-.25.51-.45.73-.23.25-.5.44-.79.57-.29.13-.6.19-.94.19s-.65-.06-.94-.2c-.29-.13-.55-.33-.77-.58-.19-.21-.34-.46-.44-.73-.1-.27-.15-.57-.15-.88h0Z"/><path class="cls-1" d="m74.38,115.14h.59c.01.24.08.42.21.56.13.14.3.21.5.21.23,0,.41-.07.54-.21.14-.14.2-.33.2-.56,0-.2-.05-.36-.15-.48-.1-.11-.31-.22-.63-.31-.02,0-.04-.01-.08-.02-.38-.1-.66-.27-.83-.5-.08-.1-.13-.21-.17-.33-.04-.12-.06-.24-.06-.37,0-.39.12-.7.35-.94.23-.24.53-.36.91-.36.35,0,.63.11.84.32.21.22.33.51.35.88h-.61c-.01-.18-.07-.33-.18-.44-.11-.11-.25-.17-.42-.17-.18,0-.33.06-.44.19-.11.12-.17.28-.17.48,0,.07.01.13.03.19.02.06.05.12.1.17.09.11.28.2.57.27.14.04.24.07.31.09.3.11.53.27.68.49.15.21.23.47.23.77,0,.44-.12.79-.37,1.06-.25.27-.58.4-.99.4-.39,0-.7-.13-.94-.38-.24-.26-.37-.59-.37-1.01h0Z"/><polygon class="cls-1" points="83.06 116.45 82.41 116.45 82.41 112.53 81.56 112.53 81.56 111.92 83.91 111.92 83.91 112.53 83.06 112.53 83.06 116.45 83.06 116.45"/><path class="cls-1" d="m89.08,114.16c0,.24.04.46.12.67.08.21.19.39.34.55.16.16.33.29.54.38.2.09.41.13.62.13.47,0,.86-.17,1.18-.5.31-.33.47-.75.47-1.24,0-.21-.04-.41-.11-.6-.08-.19-.19-.37-.33-.53-.17-.19-.36-.32-.55-.41-.2-.09-.41-.13-.65-.13-.21,0-.42.04-.61.12-.19.08-.36.2-.51.35-.16.16-.28.35-.36.56-.09.21-.13.43-.13.65h0Zm-.69,0c0-.32.06-.62.18-.9.12-.28.3-.54.53-.77.22-.22.46-.38.73-.49.27-.11.56-.17.87-.17s.61.06.88.17c.27.11.52.28.74.5.23.23.4.48.52.76.12.28.17.58.17.91s-.05.62-.15.89c-.1.27-.25.51-.45.73-.24.25-.5.44-.79.57-.29.13-.6.19-.94.19s-.65-.06-.94-.2c-.29-.13-.55-.33-.78-.58-.19-.21-.34-.46-.44-.73-.1-.27-.15-.57-.15-.88h0Z"/><polygon class="cls-1" points="98.53 116.45 97.87 116.45 97.87 111.92 98.55 111.92 100.78 115.35 100.75 111.92 101.4 111.92 101.4 116.45 100.77 116.45 98.49 112.92 98.53 116.45 98.53 116.45"/></g><g><path class="cls-1" d="m98.85,61.73l8.78-8.55-18.39.04,9.61,8.51h0Zm3.53,6.37l-18.42-16.92,28.66-.06-12.04,11.91,3.76,3.53,24.16-21.43H33.34l47.42,42.37,21.62-19.41h0ZM28.72,43.46h104.43l-52.39,46.46L28.72,43.46h0Z"/><polygon class="cls-1" points="63.73 64.23 78.92 51.05 69.54 51.05 72.51 53.9 63.79 61.38 55.3 53.84 58.15 51.05 48.66 51.05 63.73 64.23 63.73 64.23"/><path class="cls-1" d="m79.51,75.91l-.12-3.03h3.14v3.03l8.72-7.24-10.15-8.84-9.43,8.96,7.83,7.12h0Zm-11.45-7.24l12.93-12.46,13.77,12.46-12.16,10.26v4.33h-3.2v-4.27l-11.33-10.33h0Z"/></g></svg>