<svg width="303" height="194" viewBox="0 0 303 194" fill="none" xmlns="http://www.w3.org/2000/svg">
<g clip-path="url(#clip0_5215_88819)">
<path d="M290.382 0H12.6183C5.92554 0 0.5 5.4216 0.5 12.1095V181.891C0.5 188.578 5.92554 194 12.6183 194H290.382C297.074 194 302.5 188.578 302.5 181.891V12.1095C302.5 5.4216 297.074 0 290.382 0Z" fill="#1D1D1B"/>
<path d="M88.6733 131.471C88.6612 131.369 88.3521 128.874 86.9282 128.874C85.9224 128.874 85.9224 129.885 85.9224 130.321C85.9224 130.812 86.2739 131.611 86.3163 131.702C86.3769 131.835 86.5344 131.895 86.6677 131.835C86.801 131.774 86.8616 131.617 86.801 131.484C86.6677 131.187 86.4556 130.612 86.4556 130.321C86.4556 129.613 86.5647 129.407 86.9343 129.407C87.728 129.407 88.0916 130.987 88.1582 131.544C88.1582 131.587 88.2915 132.628 87.7402 133.264C87.4433 133.609 86.9828 133.784 86.3829 133.784C85.9043 133.784 85.4619 133.688 85.056 133.488C85.3105 132.767 85.3468 132.053 85.3468 131.683C85.3468 129.395 83.8563 128.323 82.8686 127.863C83.7896 127.197 84.65 125.756 84.65 124.914C84.65 124.315 84.3955 123.612 83.8199 122.904C84.2198 122.456 84.6742 122.226 85.1772 122.226C86.0618 122.226 87.5523 122.698 87.5523 124.472C87.5523 125.356 87.5402 126.101 86.6556 126.101C85.7709 126.101 85.7164 125.199 85.7164 125.096C85.7164 124.951 85.5952 124.835 85.4498 124.835C85.3044 124.835 85.1832 124.957 85.1832 125.102C85.1832 125.629 85.4922 126.634 86.6495 126.634C87.9098 126.634 88.0734 125.604 88.0734 124.478C88.0734 123.449 87.4614 121.705 85.165 121.705C84.5167 121.705 83.9411 121.978 83.4442 122.517C83.1716 122.256 82.8565 122.032 82.5172 121.857C82.6929 121.675 82.8262 121.566 82.8626 121.536C82.9171 121.493 82.9534 121.433 82.9656 121.36C82.9777 121.287 82.9595 121.221 82.911 121.166C82.8201 121.051 82.6565 121.027 82.5414 121.118C82.499 121.148 82.2809 121.324 81.9961 121.633C81.4568 121.439 80.8509 121.336 80.1965 121.336C76.8519 121.336 76.555 124.309 76.555 124.333C76.4338 125.053 76.6883 125.798 77.4214 125.907C78.5 126.071 78.9362 125.047 78.8332 123.994C78.8211 123.849 78.6939 123.746 78.5484 123.758C78.403 123.77 78.294 123.903 78.3121 124.042C78.3303 124.266 78.3243 124.975 78.0213 125.259C77.9001 125.374 77.7305 125.417 77.5063 125.386C77.0761 125.32 77.0215 124.805 77.0821 124.4C77.1064 124.139 77.3972 121.863 80.1965 121.863C80.7116 121.863 81.1902 121.929 81.6265 122.062C81.0085 122.856 80.2935 124.139 80.2147 125.907C80.1238 127.905 80.0148 129.479 79.9542 130.279C78.3849 130.533 78.1849 132.446 78.5606 133.488C77.8032 133.96 76.5308 133.875 75.9248 133.203C75.3068 132.519 75.4098 131.441 75.4159 131.429C75.4159 131.405 75.5795 129.001 76.8216 129.001C77.064 129.001 77.2336 129.068 77.3366 129.195C77.6093 129.534 77.4154 131.229 76.6338 131.538C76.5005 131.593 76.4338 131.744 76.4823 131.883C76.5368 132.016 76.6883 132.083 76.8276 132.029C77.9425 131.587 78.2576 129.492 77.7486 128.868C77.5123 128.577 77.173 128.48 76.8034 128.48C75.0887 128.48 74.8948 131.278 74.8887 131.393C74.8887 131.447 74.7615 132.707 75.531 133.56C76.3247 134.444 77.8638 134.523 78.7908 133.966C79.5058 135.116 81.063 135.631 81.9597 135.631C83.3049 135.631 84.2743 135.074 84.8318 133.978C85.2923 134.202 85.8134 134.311 86.3647 134.311C87.1282 134.311 87.722 134.075 88.128 133.609C88.8611 132.761 88.6733 131.49 88.6672 131.478L88.6733 131.471ZM79.9118 130.812C79.8087 131.605 79.5361 132.519 79.0029 133.112C78.815 132.362 78.9605 131.042 79.9118 130.812ZM84.8075 131.677C84.8075 132.259 84.7348 132.773 84.5955 133.209C82.9777 132.016 82.6141 129.298 82.5354 128.287C83.4382 128.668 84.8015 129.588 84.8015 131.677H84.8075ZM82.5051 127.469C82.5051 126.113 82.7717 124.472 83.4867 123.34C83.9169 123.915 84.1107 124.412 84.1107 124.914C84.1107 125.756 83.2322 126.973 82.5051 127.469ZM81.5174 131.956C81.5174 132.84 80.7721 132.967 80.7721 133.318C80.7721 133.463 80.8933 133.585 81.0327 133.585C81.1963 133.585 81.2387 133.47 81.3175 133.397C81.5356 133.209 82.0446 132.761 82.0446 131.956C82.0446 130.951 81.166 130.303 80.4874 130.242C80.5358 129.625 80.5783 128.935 80.6207 128.244C80.8449 128.22 81.3538 128.178 82.0022 128.172C82.0688 129.237 82.4384 132.38 84.3895 133.712C83.7714 134.911 82.6081 135.092 81.9597 135.092C81.3114 135.092 79.8087 134.662 79.2089 133.633C80.1299 132.773 80.3783 131.308 80.4389 130.763C80.8994 130.799 81.5114 131.254 81.5114 131.95L81.5174 131.956ZM81.9779 127.554H81.9719L80.651 127.711C80.6813 127.173 80.7116 126.573 80.7419 125.925C80.8206 124.236 81.5417 123.007 82.1536 122.262C82.5172 122.432 82.8383 122.656 83.1231 122.928C82.2748 124.169 81.9719 126.034 81.984 127.56L81.9779 127.554Z" fill="white"/>
<path d="M69.0833 112.437C69.6468 112.437 69.9256 112.261 69.9256 111.789C69.9256 111.317 69.6529 111.123 69.0955 111.123H68.6592V112.437H69.0773H69.0833ZM68.0957 114.568V110.596H69.0167C69.4105 110.596 69.7074 110.614 69.968 110.766C70.2952 110.953 70.5133 111.341 70.5133 111.759C70.5133 112.473 70.0043 112.97 69.1258 112.97H68.6653V114.568H68.0957ZM75.6939 111.347L75.1243 112.855H76.2513L75.6939 111.347ZM74.4699 114.568H73.858L75.4152 110.596H75.9726L77.5298 114.568H76.8996L76.4634 113.412H74.9183L74.4699 114.568ZM82.3408 112.655C83.1285 112.655 83.5223 112.4 83.5223 111.874C83.5223 111.347 83.1769 111.129 82.4741 111.129H82.0439V112.655H82.3408ZM81.4682 114.568V110.596H82.6134C83.5829 110.596 84.0858 111.062 84.0858 111.88C84.0858 112.515 83.6314 113.006 82.9588 113.042L84.0858 114.568H83.3648L82.0439 112.721V114.568H81.4682ZM88.3514 114.568H88.9271V110.596H88.3514V114.568ZM93.1321 113.424C93.1442 114.168 93.6108 114.647 94.2833 114.647C95.0104 114.647 95.477 114.126 95.477 113.369C95.477 112.842 95.1983 112.461 94.6772 112.267C94.35 112.158 94.0652 112.146 93.9016 111.946C93.8289 111.855 93.7925 111.753 93.7925 111.625C93.7925 111.292 94.0046 111.044 94.3318 111.044C94.6226 111.044 94.8408 111.256 94.859 111.577H95.3982C95.3619 110.911 94.9559 110.523 94.35 110.523C93.6956 110.523 93.2533 110.984 93.2533 111.662C93.2533 111.892 93.3199 112.092 93.4532 112.273C93.6956 112.606 93.9683 112.655 94.253 112.733C94.6893 112.867 94.9317 112.988 94.9317 113.424C94.9317 113.835 94.6772 114.102 94.2773 114.102C93.9258 114.102 93.6714 113.847 93.6592 113.424H93.1382H93.1321Z" fill="white"/>
<path d="M53.0327 97.4134H54.4748V100.538H52.9054L52.857 100.38C52.5055 99.2964 51.8754 98.7576 50.9544 98.7576C49.2094 98.7576 48.5247 100.138 48.5247 101.864C48.5247 103.589 49.167 105.109 50.7302 105.109C51.7482 105.109 52.657 104.388 52.9479 103.22L52.9963 103.014L54.6687 103.28L54.602 103.523C54.1173 105.436 52.4934 106.605 50.712 106.605C48.658 106.605 46.8281 104.897 46.8281 101.864C46.8281 99.248 48.3793 97.2681 50.9726 97.2681C51.7724 97.2681 52.4571 97.4982 53.0266 97.9644V97.4134H53.0327ZM58.7283 98.8726H61.158C61.7276 98.8726 62.1335 98.9816 62.3698 99.1995C62.6061 99.4054 62.7213 99.6718 62.7213 99.9988C62.7213 100.223 62.6607 100.435 62.5334 100.622C62.4183 100.798 62.2426 100.937 62.0063 101.022C61.7457 101.119 61.3701 101.167 60.8853 101.167H58.7283V98.8726ZM62.4001 102.445C63.7392 102.076 64.4118 101.149 64.4118 99.9927C64.4118 99.472 64.2785 98.9997 64.0179 98.5699C63.3878 97.5406 62.3941 97.4073 61.1095 97.4073H55.9532V98.8484H57.0741V105.006H55.9532V106.447H59.8553V105.006H58.7344V102.663H60.4915L63.3696 106.447H65.1752V105.006H64.4118L62.4062 102.445H62.4001ZM69.6893 102.421L70.6527 99.5144L71.5797 102.421H69.6893ZM74.373 105.006L71.398 97.4073H69.6953L67.0414 105.006H66.3022V106.447H69.1803V105.006H68.7865L69.1924 103.868H72.1069L72.5492 105.006H72.1735V106.447H75.0516V105.006H74.3791H74.373ZM87.0487 98.8484V97.4073H83.7707L81.6258 104.098L79.4203 97.4073H76.1423V98.8484H77.2632V105.006H76.1423V106.447H80.0444V105.006H78.875V100.519L80.8926 106.447H82.2802L84.31 100.513V105.006H83.1406V106.447H87.0427V105.006H85.9217V98.8484H87.0427H87.0487ZM91.2235 98.9331H93.1382C94.1743 98.9331 94.9135 99.1329 94.9135 100.168C94.9135 101.022 94.3318 101.452 93.1685 101.452H91.2296V98.9331H91.2235ZM88.4423 105.006V106.447H92.3444V105.006H91.2235V102.984H93.1442C95.1195 102.984 96.5919 102.118 96.5919 100.126C96.5919 98.3095 95.4104 97.4073 93.0412 97.4073H88.4423V98.8484H89.5633V105.006H88.4423ZM99.9002 104.207C99.4397 103.638 99.2095 102.923 99.2095 102.063C99.2095 100.211 100.015 98.7576 101.869 98.7576C103.608 98.7576 104.505 100.205 104.505 101.936C104.505 103.668 103.633 105.103 101.851 105.103C101.033 105.103 100.379 104.806 99.9002 104.207ZM98.646 98.6788C97.9007 99.5628 97.525 100.683 97.525 102.045C97.525 104.534 99.2579 106.598 101.863 106.598C104.469 106.598 106.202 104.582 106.202 101.948C106.202 99.3146 104.529 97.2681 101.869 97.2681C100.524 97.2681 99.4458 97.7404 98.646 98.6849M114.024 103.486L109.952 97.4134H107.268V98.8544H108.389V105.012H107.268V106.453H111.17V105.012H109.995V100.362L113.103 105.012H112.576V106.453H116.472V105.012H115.63V98.8544H116.757V97.4134H112.855V98.8544H114.024V103.486ZM57.3286 91.8673H59.0434C59.4736 91.8673 59.7947 91.8309 60.0068 91.7643C60.5339 91.613 60.8126 91.1286 60.8126 90.6866C60.8126 90.5473 60.7884 90.4081 60.7339 90.2688C60.4673 89.518 59.7523 89.4575 58.8919 89.4575H57.3286V91.8673ZM57.3286 87.9377H58.7707C59.5826 87.9377 60.4551 87.8893 60.4551 86.8903C60.4551 86.6965 60.4006 86.5088 60.2855 86.3211C59.9825 85.8367 59.213 85.8791 58.6253 85.8791H57.3286V87.9317V87.9377ZM62.3274 89.7905C62.4486 90.0932 62.5031 90.396 62.5031 90.7047C62.5031 91.1044 62.4062 91.504 62.2123 91.8975C61.7154 92.9026 60.6612 93.3991 59.0434 93.3991H54.5475V91.9581H55.6684V85.8004H54.5475V84.3594H58.9949C60.3158 84.3594 61.2186 84.7529 61.7033 85.534C61.9518 85.9276 62.0729 86.3393 62.0729 86.7692C62.0729 86.9629 62.0487 87.1567 61.9942 87.3504C61.8609 87.8409 61.5943 88.2405 61.1944 88.5493C61.7215 88.8157 62.0972 89.2334 62.3214 89.7905M66.5567 85.8065V89.5422C66.5567 91.0559 66.9142 92.0065 68.429 92.0065C70.0528 92.0065 70.4709 91.1588 70.4709 89.5422V85.8065H69.35V84.3654H73.2521V85.8065H72.1251V89.5483C72.1251 92.2124 70.9254 93.5444 68.532 93.5444C65.9932 93.5444 64.8965 92.1216 64.8965 89.5483V85.8065H63.7756V84.3654H67.6777V85.8065H66.5567ZM77.3117 85.8852V87.9983H79.8081V89.5241H77.3117V91.9581H78.4326V93.3991H74.5305V91.9581H75.6515V85.8004H74.5305V84.3594H81.3895L82.0863 86.3695L80.5473 86.9145L80.1474 85.8791H77.3117V85.8852ZM85.843 85.8852V87.9983H88.3393V89.5241H85.843V91.9581H86.9639V93.3991H83.0618V91.9581H84.1828V85.8004H83.0618V84.3594H89.9208L90.6176 86.3695L89.0786 86.9145L88.6787 85.8791H85.843V85.8852ZM97.7371 90.844H99.1852V93.3991H91.5992V91.9581H92.7201V85.8004H91.5992V84.3594H98.4884L99.1852 86.3695L97.6462 86.9145L97.2463 85.8791H94.3803V87.9619H96.8706V89.4877H94.3803V91.8673H97.7431V90.844H97.7371ZM109.043 86.3756L107.504 86.9205L107.105 85.8852H105.317V91.9581H106.444V93.3991H102.548V91.9581H103.663V85.8852H101.875L101.476 86.9205L99.9366 86.3756L100.633 84.3654H108.341L109.037 86.3756H109.043Z" fill="white"/>
<path d="M78.7722 76.3879C79.3297 76.0185 79.5296 75.8127 79.4206 75.4675C79.2812 75.0195 78.9419 74.971 78.8025 74.971C78.5299 74.971 78.3602 75.1224 77.9845 75.1224C77.1908 75.1224 75.6639 74.4624 74.9913 73.0154C74.1188 71.1384 74.7914 68.8376 75.5064 67.2391C76.2516 65.5801 77.4635 64.0422 77.3786 61.8867V61.8323C77.3423 60.8998 77.2272 60.367 76.191 60.1914C75.9669 60.1551 75.9487 60.149 75.8638 59.8463C75.6033 58.9684 76.1426 58.375 76.7485 58.375C76.9303 58.375 77.2029 58.4355 77.4453 58.7201C77.9118 59.259 77.9361 60.2035 77.9179 61.0512C77.8876 63.2793 77.7785 64.4661 77.0454 66.5126C76.4455 68.2018 75.4397 71.0294 77.421 72.1677C78.239 72.6339 79.8689 72.9185 81.7836 72.9185C82.5107 72.9185 84.9768 72.864 86.1523 72.1677C88.2548 70.9265 86.9763 67.9052 86.328 65.9555C85.7463 64.1936 85.6797 62.8131 85.6554 61.0512C85.6433 60.2096 85.6675 59.259 86.1341 58.7201C86.3765 58.4355 86.6491 58.375 86.8309 58.375C87.4308 58.375 87.97 58.9684 87.7155 59.8463C87.6307 60.149 87.6065 60.149 87.3883 60.1854C86.3643 60.361 86.2371 60.8574 86.2008 61.8746C86.1402 63.4973 86.8127 64.7749 87.4611 66.01C88.5881 68.1473 89.606 70.8114 88.5881 73.0093C88.1215 74.0083 87.358 74.6441 86.1765 75.0134C85.9644 75.08 85.7645 75.1164 85.5888 75.1164C85.2313 75.1164 85.0253 74.965 84.7708 74.965C84.6314 74.965 84.2921 75.0134 84.1528 75.4615C84.0498 75.8066 84.2497 76.0064 84.8071 76.3818H81.7897H78.7722V76.3879ZM79.6932 70.878C79.8932 70.878 80.0568 70.7146 80.0568 70.5148V62.5346C80.0568 62.3348 79.8932 62.1713 79.6932 62.1713C79.4933 62.1713 79.3297 62.3348 79.3297 62.5346V70.5148C79.3297 70.7146 79.4933 70.878 79.6932 70.878ZM81.7897 70.878C81.9896 70.878 82.1532 70.7146 82.1532 70.5148V62.5346C82.1532 62.3348 81.9896 62.1713 81.7897 62.1713C81.5897 62.1713 81.4261 62.3348 81.4261 62.5346V70.5148C81.4261 70.7146 81.5897 70.878 81.7897 70.878ZM83.8862 70.878C84.0861 70.878 84.2497 70.7146 84.2497 70.5148V62.5346C84.2497 62.3348 84.0861 62.1713 83.8862 62.1713C83.6862 62.1713 83.5226 62.3348 83.5226 62.5346V70.5148C83.5226 70.7146 83.6862 70.878 83.8862 70.878Z" fill="white"/>
<path d="M230.129 68.885L215.375 87.2491C213.891 89.0049 211.249 86.8979 212.648 85.0633C212.667 85.0209 228.445 67.5409 228.481 67.4924C229.414 66.4873 230.971 67.7952 230.123 68.8911L230.129 68.885Z" fill="white"/>
<path d="M214.52 65.8772L209.2 80.3178C208.31 82.5278 205.05 81.2018 205.971 78.9978L212.303 64.969C212.945 63.5885 215.029 64.4422 214.52 65.8772Z" fill="white"/>
<path d="M194.592 73.9045L217.326 95.7682C218.944 97.3969 216.611 99.843 214.903 98.2809C214.891 98.2809 192.999 75.5332 192.975 75.5151C191.975 74.4494 193.508 72.8934 194.592 73.8985V73.9045Z" fill="white"/>
<path d="M187.959 82.9688L206.336 97.7121C208.093 99.1955 205.985 101.835 204.149 100.437C204.106 100.419 186.613 84.652 186.565 84.6157C185.559 83.6833 186.868 82.1272 187.965 82.9749L187.959 82.9688Z" fill="white"/>
<path d="M184.947 98.5731L199.398 103.889C201.609 104.779 200.282 108.037 198.077 107.122L184.038 100.795C182.656 100.153 183.511 98.0706 184.947 98.5792V98.5731Z" fill="white"/>
<path d="M192.975 118.477L214.855 95.7599C216.485 94.1433 218.932 96.4744 217.369 98.1818C217.369 98.1939 194.605 120.07 194.587 120.094C193.52 121.093 191.963 119.561 192.969 118.477H192.975Z" fill="white"/>
<path d="M202.051 125.117L216.805 106.753C218.29 104.997 220.931 107.104 219.532 108.939C219.513 108.981 203.735 126.461 203.699 126.509C202.766 127.515 201.209 126.207 202.057 125.111L202.051 125.117Z" fill="white"/>
<path d="M217.659 128.123L222.979 113.683C223.87 111.473 227.13 112.799 226.209 115.003L219.877 129.032C219.235 130.412 217.15 129.558 217.659 128.123Z" fill="white"/>
<path d="M237.588 120.096L214.854 98.2321C213.236 96.6034 215.569 94.1573 217.278 95.7194C217.29 95.7194 239.182 118.467 239.206 118.485C240.206 119.551 238.673 121.107 237.588 120.102V120.096Z" fill="white"/>
<path d="M244.222 111.032L225.845 96.2887C224.088 94.8053 226.197 92.1655 228.032 93.5641C228.075 93.5823 245.568 109.349 245.616 109.385C246.622 110.318 245.313 111.874 244.216 111.026L244.222 111.032Z" fill="white"/>
<path d="M247.234 95.4283L232.783 90.1122C230.572 89.2222 231.899 85.9647 234.104 86.879L248.143 93.2062C249.525 93.848 248.67 95.9308 247.234 95.4222V95.4283Z" fill="white"/>
<path d="M239.206 75.5226L217.326 98.24C215.696 99.8566 213.248 97.5255 214.812 95.8181C214.812 95.806 237.576 73.9302 237.594 73.906C238.66 72.9069 240.218 74.4388 239.212 75.5226H239.206Z" fill="white"/>
</g>
<defs>
<clipPath id="clip0_5215_88819">
<rect width="302" height="194" fill="white" transform="translate(0.5)"/>
</clipPath>
</defs>
</svg>
